<svg width="26" height="19" fill="none" xmlns="http://www.w3.org/2000/svg"><path fill-rule="evenodd" clip-rule="evenodd" d="M11.117 5.1a.875.875 0 00-1.325.75v7a.875.875 0 001.325.75l5.833-3.5a.875.875 0 000-1.5l-5.833-3.5zm3.682 4.25l-3.257 1.955V7.396l3.257 1.955z" fill="#fff"/><path fill-rule="evenodd" clip-rule="evenodd" d="M18.87.765a75.247 75.247 0 00-11.74 0L4.518.97a3.471 3.471 0 00-3.153 2.888 33.326 33.326 0 000 10.985 3.471 3.471 0 003.153 2.888l2.614.205c3.907.305 7.831.305 11.738 0l2.614-.205a3.471 3.471 0 003.153-2.888 33.33 33.33 0 000-10.985A3.471 3.471 0 0021.483.97L18.87.765zM7.266 2.51a73.497 73.497 0 0111.466 0l2.614.205a1.721 1.721 0 011.563 1.432 31.574 31.574 0 010 10.407 1.72 1.72 0 01-1.563 1.432l-2.614.205c-3.816.299-7.65.299-11.466 0l-2.614-.204a1.721 1.721 0 01-1.563-1.433 31.576 31.576 0 010-10.407 1.72 1.72 0 011.563-1.432l2.614-.205z" fill="#fff"/></svg>